<svg xmlns="http://www.w3.org/2000/svg" viewBox="0 0 100 100" width="512" height="512">
  <rect width="100" height="100" rx="18" fill="#3b82f6"/>
  <path d="M75 65C70 75 55 85 40 80C30 77 20 65 18 50C16 35 28 20 45 15C55 12 65 18 70 25C72 28 75 30 80 28C82 27 85 28 87 30C88 32 87 34 85 35C80 38 75 45 78 52C80 58 78 62 75 65Z" fill="white"/>
  <circle cx="62" cy="28" r="3" fill="#3b82f6"/>
  <path d="M40 80C35 88 25 92 15 90" stroke="white" stroke-width="4" stroke-linecap="round" fill="none"/>
  <path d="M20 65C12 68 5 62 2 55" stroke="white" stroke-width="3" stroke-linecap="round" fill="none"/>
  <path d="M45 50C55 55 70 50 80 40" stroke="white" stroke-width="2" stroke-linecap="round" fill="none" opacity="0.5"/>
</svg>
